<svg width="238" height="238" viewBox="0 0 238 238" fill="none" xmlns="http://www.w3.org/2000/svg">
<rect width="238" height="238" fill="white"/>
<path d="M137.778 188.182H119.352C119.222 186.657 118.873 185.274 118.307 184.033C117.762 182.791 117 181.724 116.02 180.831C115.062 179.916 113.896 179.219 112.524 178.74C111.152 178.239 109.595 177.989 107.852 177.989C104.803 177.989 102.222 178.729 100.109 180.21C98.0185 181.691 96.4285 183.815 95.3395 186.581C94.2723 189.347 93.7386 192.669 93.7386 196.545C93.7386 200.64 94.2832 204.071 95.3722 206.837C96.483 209.581 98.0838 211.65 100.175 213.044C102.266 214.416 104.781 215.102 107.722 215.102C109.399 215.102 110.902 214.895 112.23 214.482C113.559 214.046 114.713 213.425 115.693 212.619C116.673 211.813 117.468 210.844 118.078 209.712C118.71 208.557 119.134 207.261 119.352 205.824L137.778 205.955C137.561 208.786 136.766 211.672 135.393 214.612C134.021 217.531 132.072 220.232 129.545 222.715C127.041 225.176 123.937 227.158 120.234 228.661C116.532 230.163 112.23 230.915 107.33 230.915C101.188 230.915 95.6771 229.597 90.7983 226.962C85.9413 224.326 82.0971 220.449 79.2656 215.331C76.456 210.213 75.0511 203.951 75.0511 196.545C75.0511 189.097 76.4886 182.824 79.3636 177.727C82.2386 172.609 86.1155 168.743 90.9943 166.129C95.8731 163.494 101.318 162.176 107.33 162.176C111.555 162.176 115.443 162.753 118.993 163.908C122.543 165.062 125.658 166.75 128.337 168.972C131.016 171.171 133.172 173.883 134.805 177.107C136.439 180.33 137.43 184.022 137.778 188.182Z" fill="#F97129"/>
<path d="M176.207 179.818V192.886H143.145V179.818H176.207ZM149.548 167.795H167.582V213.861C167.582 214.558 167.702 215.146 167.941 215.625C168.181 216.082 168.551 216.431 169.052 216.67C169.553 216.888 170.196 216.997 170.98 216.997C171.524 216.997 172.156 216.932 172.875 216.801C173.615 216.67 174.16 216.562 174.508 216.474L177.122 229.151C176.316 229.39 175.162 229.684 173.659 230.033C172.178 230.381 170.413 230.61 168.366 230.719C164.228 230.937 160.754 230.512 157.944 229.445C155.135 228.356 153.022 226.646 151.606 224.315C150.19 221.985 149.504 219.066 149.548 215.56V167.795Z" fill="#F97129"/>
<path d="M201.192 230.653C197.62 230.653 194.331 229.717 191.325 227.844C188.341 225.971 185.946 223.128 184.138 219.317C182.352 215.505 181.459 210.703 181.459 204.909C181.459 198.854 182.395 193.932 184.268 190.142C186.163 186.352 188.603 183.575 191.587 181.811C194.592 180.047 197.75 179.165 201.061 179.165C203.544 179.165 205.722 179.6 207.595 180.472C209.468 181.321 211.036 182.464 212.3 183.902C213.563 185.318 214.521 186.875 215.175 188.574H215.436V163.091H233.47V230H215.567V221.767H215.175C214.478 223.466 213.476 224.991 212.169 226.341C210.884 227.67 209.316 228.726 207.464 229.51C205.635 230.272 203.544 230.653 201.192 230.653ZM207.857 216.801C209.512 216.801 210.928 216.322 212.104 215.364C213.302 214.384 214.216 213.011 214.848 211.247C215.501 209.461 215.828 207.348 215.828 204.909C215.828 202.426 215.501 200.303 214.848 198.538C214.216 196.752 213.302 195.391 212.104 194.455C210.928 193.496 209.512 193.017 207.857 193.017C206.201 193.017 204.786 193.496 203.609 194.455C202.455 195.391 201.562 196.752 200.93 198.538C200.321 200.303 200.016 202.426 200.016 204.909C200.016 207.392 200.321 209.527 200.93 211.313C201.562 213.077 202.455 214.438 203.609 215.396C204.786 216.333 206.201 216.801 207.857 216.801Z" fill="#F97129"/>
</svg> 